<?xml version="1.0" encoding="UTF-8"?>
<svg version="1.1" xmlns="http://www.w3.org/2000/svg" width="612" height="612">
<path d="M0 0 C201.96 0 403.92 0 612 0 C612 201.96 612 403.92 612 612 C410.04 612 208.08 612 0 612 C0 410.04 0 208.08 0 0 Z " fill="#FEFEFE" transform="translate(0,0)"/>
<path d="M0 0 C0.91418701 -0.00628418 1.82837402 -0.01256836 2.77026367 -0.01904297 C17.05625615 0.24606058 29.20394893 6.27872292 39.51953125 16.00390625 C52.88218135 30.55030048 54.12468543 46.7264686 53.98852539 65.48071289 C53.98308093 67.27889234 53.97865346 69.07707511 53.97515869 70.8752594 C53.9663685 74.7280173 53.95212585 78.58070248 53.93406868 82.43342781 C53.90722889 88.53217311 53.90320984 94.63080223 53.90415955 100.729599 C53.90423523 102.82312489 53.90430095 104.91665077 53.90435696 107.01017666 C53.90443148 108.58195228 53.90443148 108.58195228 53.90450752 110.18548095 C53.90357364 124.36932987 53.88466993 138.55287947 53.81616211 152.73657227 C53.7700244 162.32600084 53.75587372 171.91490369 53.77801126 181.50442499 C53.78837742 186.57103153 53.78235916 191.63642946 53.73686409 196.70286751 C53.69424655 201.46658862 53.69367562 206.2284918 53.72471619 210.99228477 C53.72864923 212.73452906 53.71733352 214.47688879 53.68919182 216.21891022 C53.49377869 227.69806186 53.49377869 227.69806186 59.23826599 237.41966248 C60.74628064 238.798301 62.26876644 240.16147879 63.8125 241.5 C66.08203125 244.63671875 66.08203125 244.63671875 67.625 247.1875 C68.14707031 248.03699219 68.66914063 248.88648438 69.20703125 249.76171875 C69.73683594 250.66535156 70.26664063 251.56898438 70.8125 252.5 C71.48152344 253.61503906 72.15054688 254.73007812 72.83984375 255.87890625 C82.06498089 272.20777426 82.67986036 294.2541265 78.3125 312.1875 C71.7674723 333.66337215 58.47647415 350.74565087 38.75 361.6875 C19.49933839 371.68727714 -2.49859501 374.13026075 -23.48046875 367.890625 C-34.55948266 363.73453548 -44.40459229 358.53643996 -53.1875 350.5 C-54.21037109 349.61441406 -54.21037109 349.61441406 -55.25390625 348.7109375 C-65.67331421 339.127529 -71.55403527 326.62561811 -76.1875 313.5 C-76.73083984 312.0459375 -76.73083984 312.0459375 -77.28515625 310.5625 C-82.75733348 291.99026213 -79.19507104 271.09088918 -70.46948242 254.19165039 C-66.53400769 246.97586033 -61.912606 239.63458605 -55.59020424 234.31443882 C-52.6130916 230.82715926 -52.4889483 228.29951629 -52.56845093 223.91819763 C-52.56221195 223.16285156 -52.55597297 222.40750548 -52.54954493 221.62927014 C-52.53464058 219.10183914 -52.55526132 216.57595782 -52.57568359 214.04858398 C-52.57214201 212.23482211 -52.56636399 210.42106342 -52.55851746 208.60731506 C-52.54633549 204.70195726 -52.54980968 200.79703622 -52.56534958 196.89169121 C-52.58967176 190.70876136 -52.57816721 184.52621359 -52.56167603 178.34327698 C-52.53716968 167.43999936 -52.54298134 156.53689521 -52.55548096 145.63360596 C-52.57404313 129.24433107 -52.56912351 112.85509054 -52.53544676 96.46583992 C-52.52397247 90.32820603 -52.52831902 84.19085115 -52.54546714 78.05323303 C-52.55340524 74.22095937 -52.54908778 70.38876563 -52.54175758 66.55649376 C-52.54095218 64.78932403 -52.54523596 63.02214289 -52.55520058 61.25500107 C-52.65658469 42.3482047 -49.21943977 28.03220411 -35.75 13.94140625 C-32.13779582 10.49990074 -28.59885256 7.82624379 -24.1875 5.5 C-23.30320312 5.0153125 -22.41890625 4.530625 -21.5078125 4.03125 C-14.30676475 0.66452637 -7.87533659 0.04092456 0 0 Z " fill="#FBFBFB" transform="translate(293.1875,120.5)"/>
<path d="M0 0 C0.91418701 -0.00628418 1.82837402 -0.01256836 2.77026367 -0.01904297 C17.05625615 0.24606058 29.20394893 6.27872292 39.51953125 16.00390625 C52.88218135 30.55030048 54.12468543 46.7264686 53.98852539 65.48071289 C53.98308093 67.27889234 53.97865346 69.07707511 53.97515869 70.8752594 C53.9663685 74.7280173 53.95212585 78.58070248 53.93406868 82.43342781 C53.90722889 88.53217311 53.90320984 94.63080223 53.90415955 100.729599 C53.90423523 102.82312489 53.90430095 104.91665077 53.90435696 107.01017666 C53.90443148 108.58195228 53.90443148 108.58195228 53.90450752 110.18548095 C53.90357364 124.36932987 53.88466993 138.55287947 53.81616211 152.73657227 C53.7700244 162.32600084 53.75587372 171.91490369 53.77801126 181.50442499 C53.78837742 186.57103153 53.78235916 191.63642946 53.73686409 196.70286751 C53.69424655 201.46658862 53.69367562 206.2284918 53.72471619 210.99228477 C53.72864923 212.73452906 53.71733352 214.47688879 53.68919182 216.21891022 C53.49377869 227.69806186 53.49377869 227.69806186 59.23826599 237.41966248 C60.74628064 238.798301 62.26876644 240.16147879 63.8125 241.5 C66.08203125 244.63671875 66.08203125 244.63671875 67.625 247.1875 C68.14707031 248.03699219 68.66914063 248.88648438 69.20703125 249.76171875 C69.73683594 250.66535156 70.26664063 251.56898438 70.8125 252.5 C71.48152344 253.61503906 72.15054688 254.73007812 72.83984375 255.87890625 C82.06498089 272.20777426 82.67986036 294.2541265 78.3125 312.1875 C71.7674723 333.66337215 58.47647415 350.74565087 38.75 361.6875 C19.49933839 371.68727714 -2.49859501 374.13026075 -23.48046875 367.890625 C-34.55948266 363.73453548 -44.40459229 358.53643996 -53.1875 350.5 C-54.21037109 349.61441406 -54.21037109 349.61441406 -55.25390625 348.7109375 C-65.67331421 339.127529 -71.55403527 326.62561811 -76.1875 313.5 C-76.73083984 312.0459375 -76.73083984 312.0459375 -77.28515625 310.5625 C-82.75733348 291.99026213 -79.19507104 271.09088918 -70.46948242 254.19165039 C-66.53400769 246.97586033 -61.912606 239.63458605 -55.59020424 234.31443882 C-52.6130916 230.82715926 -52.4889483 228.29951629 -52.56845093 223.91819763 C-52.56221195 223.16285156 -52.55597297 222.40750548 -52.54954493 221.62927014 C-52.53464058 219.10183914 -52.55526132 216.57595782 -52.57568359 214.04858398 C-52.57214201 212.23482211 -52.56636399 210.42106342 -52.55851746 208.60731506 C-52.54633549 204.70195726 -52.54980968 200.79703622 -52.56534958 196.89169121 C-52.58967176 190.70876136 -52.57816721 184.52621359 -52.56167603 178.34327698 C-52.53716968 167.43999936 -52.54298134 156.53689521 -52.55548096 145.63360596 C-52.57404313 129.24433107 -52.56912351 112.85509054 -52.53544676 96.46583992 C-52.52397247 90.32820603 -52.52831902 84.19085115 -52.54546714 78.05323303 C-52.55340524 74.22095937 -52.54908778 70.38876563 -52.54175758 66.55649376 C-52.54095218 64.78932403 -52.54523596 63.02214289 -52.55520058 61.25500107 C-52.65658469 42.3482047 -49.21943977 28.03220411 -35.75 13.94140625 C-32.13779582 10.49990074 -28.59885256 7.82624379 -24.1875 5.5 C-23.30320312 5.0153125 -22.41890625 4.530625 -21.5078125 4.03125 C-14.30676475 0.66452637 -7.87533659 0.04092456 0 0 Z M-30.60546875 31.3671875 C-37.88875217 42.0037715 -37.61821924 53.51246492 -37.57226562 65.90551758 C-37.57637593 67.76092868 -37.58183951 69.61633719 -37.58854675 71.47174072 C-37.60022771 75.45003651 -37.60277204 79.42819373 -37.59819031 83.40650368 C-37.59135978 89.69707398 -37.60728237 95.98746297 -37.62658691 102.27799988 C-37.66758341 116.7586222 -37.67899576 131.23923911 -37.69011688 145.71990967 C-37.70062396 159.00966445 -37.7173679 172.29933167 -37.75821257 185.58903235 C-37.7765767 191.84315179 -37.78045886 198.09706263 -37.77327728 204.35120261 C-37.77175722 208.23668701 -37.78252712 212.12206659 -37.79665565 216.00752258 C-37.80066308 217.80987847 -37.79952518 219.61225418 -37.79288292 221.41460228 C-37.78451576 223.87360777 -37.79447452 226.33188621 -37.80895996 228.79084778 C-37.80206603 229.5048516 -37.79517209 230.21885543 -37.78806925 230.95449573 C-37.85012986 236.35694572 -39.25970027 239.51352811 -42.984375 243.3515625 C-43.95117188 244.22941406 -43.95117188 244.22941406 -44.9375 245.125 C-49.63955249 249.70604379 -52.9217567 254.83493509 -56.1875 260.5 C-56.5896875 261.1909375 -56.991875 261.881875 -57.40625 262.59375 C-64.90038218 276.44653978 -65.2613685 293.3902619 -61.625 308.5 C-55.92856669 326.6376019 -44.52212732 340.12897751 -28.1875 349.5 C-24.58417656 351.15328958 -21.0062017 352.44562313 -17.1875 353.5 C-15.30417969 354.03560547 -15.30417969 354.03560547 -13.3828125 354.58203125 C-9.17939691 355.6135049 -5.18913606 355.80898911 -0.875 355.75 C-0.12935791 355.74105713 0.61628418 355.73211426 1.38452148 355.72290039 C19.57456704 355.34299791 34.77497683 348.65775763 47.60546875 335.6875 C49.11067506 334.01590842 50.47383807 332.30719361 51.8125 330.5 C52.56273437 329.50419922 52.56273437 329.50419922 53.328125 328.48828125 C63.57982642 314.06859011 66.50247202 297.84726216 64.8125 280.5 C62.17895016 265.83438096 54.72793036 253.06363345 44 242.8125 C39.30465902 237.84885382 38.43772643 232.65113021 38.38012695 226.00415039 C38.36483948 224.93460114 38.36483948 224.93460114 38.34924316 223.84344482 C38.31930392 221.5114334 38.30987696 219.17983397 38.30078125 216.84765625 C38.28392033 215.22096919 38.2657682 213.59429505 38.24638367 211.96763611 C38.19903068 207.70490557 38.16912656 203.44222742 38.14294434 199.17932129 C38.11306429 194.82191628 38.06655966 190.4646915 38.02148438 186.10742188 C37.93561868 177.57170345 37.8681994 169.03596834 37.8125 160.5 C36.77319336 160.4906543 35.73388672 160.48130859 34.66308594 160.47167969 C30.80116162 160.43175877 26.9400322 160.36599522 23.07861328 160.29248047 C21.40846989 160.26428282 19.73819335 160.24306221 18.06787109 160.22900391 C15.66434628 160.20755663 13.26242017 160.16090155 10.859375 160.109375 C10.11443787 160.10814636 9.36950073 160.10691772 8.60198975 160.10565186 C5.15598092 160.00863841 3.1512948 159.74884217 0.34082031 157.68457031 C-1.89233647 154.4925117 -1.73920266 152.29295578 -1.1875 148.5 C1.26620619 145.79817943 2.821035 145.49899364 6.47949219 145.06762695 C7.93910994 145.0263778 9.39922823 145.0008061 10.859375 144.98828125 C11.63057678 144.97033005 12.40177856 144.95237885 13.1963501 144.93388367 C15.65167832 144.87984231 18.10681286 144.8459058 20.5625 144.8125 C22.23049566 144.77932136 23.89846579 144.74483118 25.56640625 144.70898438 C29.64846438 144.62165676 33.72964611 144.5615399 37.8125 144.5 C37.8125 134.6 37.8125 124.7 37.8125 114.5 C35.33234375 114.47421875 32.8521875 114.4484375 30.296875 114.421875 C27.89067307 114.38344471 25.48468473 114.33828791 23.07861328 114.29248047 C21.40846989 114.26428282 19.73819335 114.24306221 18.06787109 114.22900391 C15.66434628 114.20755663 13.26242017 114.16090155 10.859375 114.109375 C10.11443787 114.10814636 9.36950073 114.10691772 8.60198975 114.10565186 C5.13194192 114.00796165 3.15331093 113.75517057 0.34082031 111.64941406 C-1.75041434 108.70832302 -1.77625262 107.03251571 -1.1875 103.5 C0.34082031 101.35058594 0.34082031 101.35058594 2.8125 99.5 C5.61946003 99.08213298 8.05101941 98.89525687 10.859375 98.890625 C11.63057678 98.87408875 12.40177856 98.85755249 13.1963501 98.84051514 C15.65181454 98.79205407 18.10665984 98.77066963 20.5625 98.75 C22.23049987 98.72183854 23.89847092 98.69191086 25.56640625 98.66015625 C29.64872167 98.58297815 33.72908551 98.54244714 37.8125 98.5 C37.8125 88.6 37.8125 78.7 37.8125 68.5 C35.33234375 68.47421875 32.8521875 68.4484375 30.296875 68.421875 C27.89067307 68.38344471 25.48468473 68.33828791 23.07861328 68.29248047 C21.40846989 68.26428282 19.73819335 68.24306221 18.06787109 68.22900391 C15.66434628 68.20755663 13.26242017 68.16090155 10.859375 68.109375 C10.11443787 68.10814636 9.36950073 68.10691772 8.60198975 68.10565186 C5.15598092 68.00863841 3.1512948 67.74884217 0.34082031 65.68457031 C-1.89233647 62.4925117 -1.73920266 60.29295578 -1.1875 56.5 C1.26620619 53.79817943 2.821035 53.49899364 6.47949219 53.06762695 C7.93910994 53.0263778 9.39922823 53.0008061 10.859375 52.98828125 C11.63057678 52.97033005 12.40177856 52.95237885 13.1963501 52.93388367 C15.65167832 52.87984231 18.10681286 52.8459058 20.5625 52.8125 C22.23049566 52.77932136 23.89846579 52.74483118 25.56640625 52.70898438 C29.6482976 52.62411978 33.73013214 52.55727974 37.8125 52.5 C37.82095947 51.23019287 37.82941895 49.96038574 37.83813477 48.65209961 C37.84289322 47.9378331 37.84765167 47.22356659 37.85255432 46.48765564 C37.69404924 38.62199946 33.17192558 31.95163075 27.8125 26.5 C25.70220791 25.25286661 25.70220791 25.25286661 23.8125 24.5 C23.8125 23.84 23.8125 23.18 23.8125 22.5 C22.25130578 21.70576139 20.68848036 20.91472877 19.125 20.125 C18.25488281 19.68414062 17.38476562 19.24328125 16.48828125 18.7890625 C15.16376953 18.15097656 15.16376953 18.15097656 13.8125 17.5 C13.04164063 17.12746094 12.27078125 16.75492188 11.4765625 16.37109375 C-4.69058744 11.0847676 -20.72985951 18.36294173 -30.60546875 31.3671875 Z " fill="#353535" transform="translate(293.1875,120.5)"/>
<path d="M0 0 C6.30795786 3.20950673 9.55390828 6.15886408 12.34729004 12.6635437 C13.78409137 17.08651418 13.67962613 21.36165793 13.578125 25.97265625 C13.57246521 26.95874374 13.56680542 27.94483124 13.56097412 28.96080017 C13.53876734 32.07854899 13.48860089 35.19510461 13.4375 38.3125 C13.4174147 40.43943641 13.3991675 42.56639101 13.3828125 44.69335938 C13.33895409 49.87935878 13.27003662 55.06447782 13.1875 60.25 C15.1675 60.745 15.1675 60.745 17.1875 61.25 C17.1875 61.91 17.1875 62.57 17.1875 63.25 C17.765 63.51167969 18.3425 63.77335937 18.9375 64.04296875 C27.74898287 68.76996216 34.83066866 77.51046528 38.10546875 86.875 C42.66409177 102.96929347 39.64965857 115.45116358 33.1875 130.25 C32.5275 130.25 31.8675 130.25 31.1875 130.25 C30.960625 130.95125 30.73375 131.6525 30.5 132.375 C26.19442221 141.80626564 17.17635535 146.61284107 8.01171875 150.6484375 C-2.04858523 154.18144587 -14.58152681 155.41899378 -24.67578125 151.28515625 C-25.38089844 150.94355469 -26.08601563 150.60195313 -26.8125 150.25 C-27.69292969 149.83621094 -28.57335937 149.42242187 -29.48046875 148.99609375 C-36.27369439 145.55731608 -45.28120592 140.84388224 -47.8125 133.25 C-48.80303478 132.24062353 -49.80371206 131.24113415 -50.8125 130.25 C-58.43610313 118.11389648 -59.88998381 103.4273235 -56.875 89.5625 C-52.60547308 76.61619256 -44.21297548 67.34871787 -32.8125 60.25 C-32.1525 60.25 -31.4925 60.25 -30.8125 60.25 C-30.81694122 59.67228348 -30.82138245 59.09456696 -30.82595825 58.49934387 C-30.87024022 52.4809517 -30.90038667 46.46260589 -30.92236328 40.4440918 C-30.93241444 38.19862996 -30.94605744 35.95318119 -30.96337891 33.70776367 C-30.98766581 30.47832003 -30.99899207 27.24904962 -31.0078125 24.01953125 C-31.01813507 23.01727005 -31.02845764 22.01500885 -31.03909302 20.9823761 C-31.03924408 20.04177841 -31.03939514 19.10118073 -31.03955078 18.13208008 C-31.043992 17.30823318 -31.04843323 16.48438629 -31.05300903 15.63557434 C-30.77665566 12.89446521 -29.93662163 10.75281751 -28.8125 8.25 C-28.1525 8.25 -27.4925 8.25 -26.8125 8.25 C-26.626875 7.693125 -26.44125 7.13625 -26.25 6.5625 C-20.64327884 -2.45700795 -9.22106132 -3.93864428 0 0 Z " fill="#9A9A9A" transform="translate(302.8125,307.75)"/>
<path d="M0 0 C3.0625 0.3125 3.0625 0.3125 4.7109375 1.3515625 C6.76810617 4.33624074 6.6352851 7.489724 6.75 11 C6.78416016 11.70189453 6.81832031 12.40378906 6.85351562 13.12695312 C6.93579947 14.85491387 7.0008324 16.58368072 7.0625 18.3125 C7.78695312 17.5184375 8.51140625 16.724375 9.2578125 15.90625 C10.23355029 14.87421965 11.21015909 13.84301231 12.1875 12.8125 C12.661875 12.28785156 13.13625 11.76320313 13.625 11.22265625 C16.17542006 8.56884078 17.60914093 7.3703292 21.30859375 6.8984375 C24.0625 7.3125 24.0625 7.3125 26 8.4375 C27.63013416 11.31420734 26.89806387 13.18970293 26.0625 16.3125 C24.22070312 18.18237305 24.22070312 18.18237305 21.84375 19.82421875 C11.32370083 27.86861695 11.32370083 27.86861695 6.06884766 39.62109375 C4.79530003 49.7719158 5.3294473 60.13595347 6.0625 70.3125 C6.7225 70.3125 7.3825 70.3125 8.0625 70.3125 C8.31 69.735 8.5575 69.1575 8.8125 68.5625 C10.24549988 65.98310021 11.84674676 64.25128408 14.0625 62.3125 C14.7225 62.3125 15.3825 62.3125 16.0625 62.3125 C16.31 61.735 16.5575 61.1575 16.8125 60.5625 C18.24549988 57.98310021 19.84674676 56.25128408 22.0625 54.3125 C22.7225 54.3125 23.3825 54.3125 24.0625 54.3125 C24.31 53.735 24.5575 53.1575 24.8125 52.5625 C26.0625 50.3125 26.0625 50.3125 28.10913086 48.59985352 C30.76418335 45.49084379 30.56024023 43.51377169 30.56640625 39.46484375 C30.57582748 38.81173721 30.58524872 38.15863068 30.59495544 37.48573303 C30.62354926 35.4068335 30.62668542 33.32908008 30.625 31.25 C30.62860832 29.16751749 30.63812866 27.08586429 30.66575623 25.0035553 C30.69024246 23.11700822 30.69247817 21.2302115 30.69360352 19.34350586 C31.0625 16.3125 31.0625 16.3125 32.35913086 14.38110352 C34.0625 13.3125 34.0625 13.3125 37.6875 13.5 C38.80125 13.768125 39.915 14.03625 41.0625 14.3125 C42.2107685 16.609037 42.17811175 17.89563167 42.16015625 20.4453125 C42.15532227 21.65380859 42.15532227 21.65380859 42.15039062 22.88671875 C42.13782227 24.14935547 42.13782227 24.14935547 42.125 25.4375 C42.12048828 26.28699219 42.11597656 27.13648438 42.11132812 28.01171875 C42.09952874 30.11200909 42.08159306 32.2122633 42.0625 34.3125 C42.7225 34.3125 43.3825 34.3125 44.0625 34.3125 C44.7225 32.9925 45.3825 31.6725 46.0625 30.3125 C46.7225 30.3125 47.3825 30.3125 48.0625 30.3125 C48.43375 29.4153125 48.43375 29.4153125 48.8125 28.5 C50.30388722 25.89007237 51.39769447 24.71892514 54.0625 23.3125 C57.07983125 23.5538865 59.35533042 23.95891521 62.0625 25.3125 C62.50409916 28.33009424 62.60410613 30.48094311 60.90234375 33.09375 C57.81883456 36.68986302 54.41630771 39.97011923 51.0625 43.3125 C52.32707031 43.27769531 53.59164062 43.24289062 54.89453125 43.20703125 C56.55467423 43.17889323 58.21483156 43.15159309 59.875 43.125 C60.70837891 43.09986328 61.54175781 43.07472656 62.40039062 43.04882812 C63.60405273 43.03432617 63.60405273 43.03432617 64.83203125 43.01953125 C65.93961792 42.99596558 65.93961792 42.99596558 67.06958008 42.97192383 C69.64471485 43.41199647 70.53042658 44.22474912 72.0625 46.3125 C71.9375 49.375 71.9375 49.375 71.0625 52.3125 C67.42106837 54.74012109 65.74620066 54.52771956 61.41796875 54.48046875 C60.10119141 54.48755859 58.78441406 54.49464844 57.42773438 54.50195312 C55.34032958 54.5061196 53.25489179 54.50007743 51.16772461 54.46704102 C43.14309434 54.07600079 43.14309434 54.07600079 35.90112305 56.81445312 C34.41483892 58.57453254 33.23658569 60.33537213 32.0625 62.3125 C30.12109375 64.1328125 30.12109375 64.1328125 28.5 65.4375 C25.51272143 67.91267367 22.77244161 70.53124414 20.0625 73.3125 C18.39706199 74.98039441 16.73055152 76.64721933 15.0625 78.3125 C19.79466293 78.43658851 24.52586832 78.52706516 29.25927734 78.5871582 C30.86751818 78.61222128 32.47564602 78.64628171 34.08349609 78.68969727 C36.40230239 78.75071848 38.71959665 78.77878963 41.0390625 78.80078125 C42.10817368 78.83949089 42.10817368 78.83949089 43.19888306 78.87898254 C47.04599124 78.88111834 49.4865638 78.35049961 52.43896484 75.96948242 C55.1395132 73.40270655 55.1395132 73.40270655 57.0625 70.3125 C57.7225 70.3125 58.3825 70.3125 59.0625 70.3125 C59.5575 68.8275 59.5575 68.8275 60.0625 67.3125 C61.83984375 65.55859375 61.83984375 65.55859375 64 63.75 C66.09593963 61.98119432 68.12244888 60.25255112 70.0625 58.3125 C73.0625 58.0625 73.0625 58.0625 76.0625 58.3125 C78.0625 60.3125 78.0625 60.3125 78.5 63.6875 C78.0625 67.3125 78.0625 67.3125 75.875 69.4375 C74.946875 70.05625 74.01875 70.675 73.0625 71.3125 C71.37634218 72.95944485 69.70679829 74.62376121 68.0625 76.3125 C67.4025 76.9725 66.7425 77.6325 66.0625 78.3125 C67.74279297 78.38597656 67.74279297 78.38597656 69.45703125 78.4609375 C70.92971203 78.53597856 72.40236707 78.61152582 73.875 78.6875 C74.61298828 78.7184375 75.35097656 78.749375 76.11132812 78.78125 C79.88143115 78.98596148 81.85900741 79.17683827 85.0625 81.3125 C85.4375 84.8125 85.4375 84.8125 85.0625 88.3125 C81.34183528 90.79294315 78.19709526 90.75631173 73.875 90.9375 C73.12541016 90.97617187 72.37582031 91.01484375 71.60351562 91.0546875 C69.75690801 91.14878216 67.9097381 91.23172319 66.0625 91.3125 C68.54982259 93.83731991 70.96734306 96.23725962 73.75 98.4375 C76.0625 100.3125 76.0625 100.3125 78.0625 103.3125 C77.49646226 109.87853774 77.49646226 109.87853774 76.0625 111.3125 C72.8125 111.6875 72.8125 111.6875 69.0625 111.3125 C66.15651314 108.96003444 64.08894317 106.34537529 61.75 103.4375 C59.10434759 100.16635788 55.98316245 97.5822146 52.734375 94.92578125 C51.0625 93.3125 51.0625 93.3125 50.0625 90.3125 C38.1825 90.3125 26.3025 90.3125 14.0625 90.3125 C14.0625 90.9725 14.0625 91.6325 14.0625 92.3125 C14.743125 92.4775 15.42375 92.6425 16.125 92.8125 C20.41359203 95.00241933 23.25759056 98.43250999 26.0625 102.3125 C26.0625 102.9725 26.0625 103.6325 26.0625 104.3125 C26.65595215 104.55846924 27.2494043 104.80443848 27.86083984 105.05786133 C30.4046267 106.50746442 31.51143276 108.07862089 33.2890625 110.38671875 C37.10738433 114.3050569 40.45917621 115.06497729 45.7734375 115.20703125 C48.66435144 115.24434224 51.5474302 115.1949365 54.4375 115.125 C56.64595844 115.09878327 58.85354975 115.08395852 61.06216431 115.08512878 C63.04991172 115.08217753 65.03752418 115.04550589 67.02490234 115.00708008 C68.02730957 115.10786865 69.0297168 115.20865723 70.0625 115.3125 C72.36691554 118.76912331 72.32110135 120.26107881 72.0625 124.3125 C71.0625 126.3125 71.0625 126.3125 69.484375 126.93359375 C66.09332655 127.46412875 62.73392682 127.41704022 59.3125 127.375 C58.61511719 127.37048828 57.91773438 127.36597656 57.19921875 127.36132812 C55.48694197 127.3496002 53.77470967 127.33166653 52.0625 127.3125 C54.59423171 130.42291324 56.90251466 133.17338231 59.9375 135.8125 C62.0625 138.3125 62.0625 138.3125 62 141.5 C61.0625 144.3125 61.0625 144.3125 59.0625 146.3125 C56.25 146.75 56.25 146.75 53.0625 146.3125 C50.24620474 143.96558729 48.15307797 141.42636945 45.875 138.5625 C44.25940923 136.23762612 44.25940923 136.23762612 42.0625 135.3125 C42.09730469 136.57707031 42.13210938 137.84164062 42.16796875 139.14453125 C42.19610677 140.80467423 42.22340691 142.46483156 42.25 144.125 C42.27513672 144.95837891 42.30027344 145.79175781 42.32617188 146.65039062 C42.33583984 147.45283203 42.34550781 148.25527344 42.35546875 149.08203125 C42.3711792 149.82042236 42.38688965 150.55881348 42.40307617 151.31958008 C41.96284451 153.89564533 41.13042961 154.75634751 39.0625 156.3125 C36 156.6875 36 156.6875 33.0625 156.3125 C30.63805035 152.67582553 30.88196418 151.12132739 31 146.80859375 C31.00644531 145.50986328 31.01289063 144.21113281 31.01953125 142.87304688 C31.03367985 140.81979253 31.06173804 138.77155505 31.13427734 136.71948242 C31.43230102 128.01928605 31.43230102 128.01928605 27.9453125 120.29345703 C25.42873193 117.77640974 22.82947689 115.54762178 20.0625 113.3125 C17.51510209 110.85506168 15.20749242 108.50280255 13.0625 105.6875 C10.93368261 103.15952934 8.9110638 101.93355769 6.0625 100.3125 C3.75849202 121.77522753 3.75849202 121.77522753 11.58203125 140.84765625 C15.78828252 145.14808866 20.35239011 148.94761269 25.24243164 152.44848633 C27.0625 154.3125 27.0625 154.3125 27.40014648 156.9284668 C27.0625 159.3125 27.0625 159.3125 26 161.125 C22.61291938 163.20095264 20.98308353 163.13455784 17.0625 162.3125 C13.70518647 159.25842769 10.88617937 155.8572477 8.0625 152.3125 C7.7325 151.9825 7.4025 151.6525 7.0625 151.3125 C7.02511719 152.36050781 6.98773438 153.40851563 6.94921875 154.48828125 C6.88355485 155.86722305 6.81710765 157.24612771 6.75 158.625 C6.71616211 159.66043945 6.71616211 159.66043945 6.68164062 160.71679688 C6.5256701 163.65187861 6.40642482 165.81450482 4.7109375 168.26953125 C2.10980039 169.9152744 0.04968005 169.69384213 -2.9375 169.3125 C-5.46525351 165.52086973 -5.16193035 162.50375969 -5.0625 158.125 C-5.05347656 157.37541016 -5.04445313 156.62582031 -5.03515625 155.85351562 C-5.01162578 154.00637346 -4.97575561 152.15939588 -4.9375 150.3125 C-9.09362825 153.70978461 -12.64349337 157.04249141 -15.9375 161.3125 C-18.73620027 162.71185013 -20.84248792 162.56515405 -23.9375 162.3125 C-25.8125 161.125 -25.8125 161.125 -26.9375 159.3125 C-27.125 156.625 -27.125 156.625 -26.9375 154.3125 C-25.9475 153.9825 -24.9575 153.6525 -23.9375 153.3125 C-23.6075 152.3225 -23.2775 151.3325 -22.9375 150.3125 C-22.2775 150.3125 -21.6175 150.3125 -20.9375 150.3125 C-20.6075 149.3225 -20.2775 148.3325 -19.9375 147.3125 C-17.5 144.625 -17.5 144.625 -14.9375 142.3125 C-14.2775 142.3125 -13.6175 142.3125 -12.9375 142.3125 C-12.6075 141.3225 -12.2775 140.3325 -11.9375 139.3125 C-9.5 136.625 -9.5 136.625 -6.9375 134.3125 C-6.2775 134.3125 -5.6175 134.3125 -4.9375 134.3125 C-4.9375 101.6425 -4.9375 68.9725 -4.9375 35.3125 C-6.2575 34.6525 -7.5775 33.9925 -8.9375 33.3125 C-10.27645632 31.65034732 -11.60880142 29.98286393 -12.9375 28.3125 C-14.6703078 26.73389992 -16.45615235 25.2343962 -18.25390625 23.73046875 C-20.27739141 22.02623415 -22.17458879 20.28696056 -23.9375 18.3125 C-23.9375 17.6525 -23.9375 16.9925 -23.9375 16.3125 C-24.5975 16.3125 -25.2575 16.3125 -25.9375 16.3125 C-26.0625 12.9375 -26.0625 12.9375 -25.9375 9.3125 C-23.9375 7.3125 -23.9375 7.3125 -20.625 6.875 C-15.36913488 7.49857722 -13.83138677 10.01787777 -10.58984375 13.9453125 C-8.14281218 17.07308353 -8.14281218 17.07308353 -4.9375 19.3125 C-4.96070313 18.10851562 -4.98390625 16.90453125 -5.0078125 15.6640625 C-5.02656863 14.08854785 -5.04476899 12.51302652 -5.0625 10.9375 C-5.07925781 10.1434375 -5.09601563 9.349375 -5.11328125 8.53125 C-5.13085473 6.45757985 -5.04085168 4.38366759 -4.9375 2.3125 C-2.9375 0.3125 -2.9375 0.3125 0 0 Z " fill="#9B9B9B" transform="translate(391.9375,321.6875)"/>
<path d="M0 0 C2.23413013 3.35119519 2.23847762 4.4177755 2.1953125 8.32421875 C2.18886719 9.35224609 2.18242187 10.38027344 2.17578125 11.43945312 C2.15064453 13.04723633 2.15064453 13.04723633 2.125 14.6875 C2.11597656 15.77095703 2.10695313 16.85441406 2.09765625 17.97070312 C2.0740734 20.6473571 2.04116126 23.32356797 2 26 C3.32 26 4.64 26 6 26 C5.49800802 29.72908331 4.95792977 33.36147686 4 37 C2.60201172 37.03867188 2.60201172 37.03867188 1.17578125 37.078125 C-16.46368526 37.86289399 -29.71910004 43.04153315 -42 56 C-44.07557481 58.86626998 -45.59598662 61.75821301 -47 65 C-47.47566406 65.97453125 -47.47566406 65.97453125 -47.9609375 66.96875 C-52.41364688 77.58989164 -51.07259613 92.46272525 -47 103 C-43.13309706 110.71214256 -38.54621582 117.17827323 -31.5 122.25 C-30.5615625 122.93578125 -29.623125 123.6215625 -28.65625 124.328125 C-26.3170475 125.80044657 -24.69427177 126.56789981 -22 127 C-22 127.66 -22 128.32 -22 129 C-14.08 129.66 -6.16 130.32 2 131 C2.09192425 135.76984706 2.17152499 140.53661287 2.21972656 145.30664062 C2.23982144 146.92849143 2.26710254 148.55026997 2.30175781 150.171875 C2.3503727 152.5053898 2.37298889 154.83794557 2.390625 157.171875 C2.41127014 157.89493835 2.43191528 158.61800171 2.45318604 159.36297607 C2.45471785 162.81273454 2.23202082 164.68275209 0.17089844 167.50097656 C-2 169 -2 169 -5.125 168.8125 C-8 168 -8 168 -10 167 C-10 159.08 -10 151.16 -10 143 C-12.64 143 -15.28 143 -18 143 C-20.5 142.5 -20.5 142.5 -22 142 C-22.11730469 142.5259375 -22.23460937 143.051875 -22.35546875 143.59375 C-23.17033321 146.63591064 -24.21852836 149.54661527 -25.3125 152.5 C-25.72113281 153.6240625 -26.12976563 154.748125 -26.55078125 155.90625 C-28.01707184 159.03644447 -29.33054282 160.83302888 -32 163 C-35.76905843 163.55156953 -36.75173326 163.16551116 -40 161 C-40.74110844 154.50104906 -39.13833298 149.87767618 -36.5 144 C-36.16613281 143.22527344 -35.83226562 142.45054687 -35.48828125 141.65234375 C-34.6717309 139.76261293 -33.8376628 137.88046752 -33 136 C-34.65 135.34 -36.3 134.68 -38 134 C-38 133.34 -38 132.68 -38 132 C-40.22733331 131.45691683 -40.22733331 131.45691683 -43 132 C-46.02256964 134.39375853 -48.46642914 137.40611993 -51.0078125 140.29101562 C-53.97183532 143.48439735 -55.44697779 144.85761529 -59.79296875 145.9765625 C-63 146 -63 146 -64.9375 144.9375 C-66.43904748 142.199384 -66.26140874 140.07155269 -66 137 C-65.67 136.34 -65.34 135.68 -65 135 C-64.01 135 -63.02 135 -62 135 C-61.731875 134.41605469 -61.46375 133.83210937 -61.1875 133.23046875 C-59.98776545 130.97701996 -58.66982858 129.23697744 -57 127.3125 C-56.484375 126.71050781 -55.96875 126.10851562 -55.4375 125.48828125 C-54 124 -54 124 -52 123 C-52.64544429 119.51460083 -54.10134397 116.97180943 -56 114 C-59.84409278 114.39426593 -62.86977902 115.33299826 -66.3125 117 C-70.64627174 119.00189456 -75.16953779 120.53348478 -80 120 C-81.734375 118.69140625 -81.734375 118.69140625 -83 117 C-83.375 114 -83.375 114 -83 111 C-81.03562092 108.58456054 -79.17424458 107.45809783 -76.27734375 106.39453125 C-75.57416016 106.13349609 -74.87097656 105.87246094 -74.14648438 105.60351562 C-73.41751953 105.34248047 -72.68855469 105.08144531 -71.9375 104.8125 C-71.20466797 104.53986328 -70.47183594 104.26722656 -69.71679688 103.98632812 C-64.29546523 102 -64.29546523 102 -62 102 C-62.66 98.7 -63.32 95.4 -64 92 C-65.39734375 91.95101562 -66.7946875 91.90203125 -68.234375 91.8515625 C-70.07293622 91.77651918 -71.91147692 91.70097203 -73.75 91.625 C-74.67039063 91.5940625 -75.59078125 91.563125 -76.5390625 91.53125 C-77.42851562 91.49257812 -78.31796875 91.45390625 -79.234375 91.4140625 C-80.05131836 91.3826416 -80.86826172 91.3512207 -81.70996094 91.31884766 C-84.20601917 90.97131546 -85.86620725 90.32904468 -88 89 C-89.39935013 86.20129973 -89.25265405 84.09501208 -89 81 C-87.35625285 78.72035312 -86.42519467 78.07789591 -83.63989258 77.56762695 C-82.73392334 77.54144287 -81.8279541 77.51525879 -80.89453125 77.48828125 C-79.91162109 77.45283203 -78.92871094 77.41738281 -77.91601562 77.38085938 C-76.89185547 77.35830078 -75.86769531 77.33574219 -74.8125 77.3125 C-73.25885742 77.26125977 -73.25885742 77.26125977 -71.67382812 77.20898438 C-69.11626736 77.12648241 -66.55815037 77.06156544 -64 77 C-63.34 73.7 -62.68 70.4 -62 67 C-62.9075 66.773125 -63.815 66.54625 -64.75 66.3125 C-79.64659187 62.03011219 -79.64659187 62.03011219 -83 57 C-83.32162076 53.9124407 -83.48724515 51.85984439 -81.9375 49.125 C-78.81677698 47.31296728 -76.54733097 47.58614472 -73 48 C-70.49711878 49.13428447 -68.34001834 50.52665512 -66 52 C-62.57025432 53.63321223 -59.80538981 54.70099286 -56 54 C-54.28288757 51.55503957 -54.28288757 51.55503957 -53 49 C-52.34 49 -51.68 49 -51 49 C-53.18338773 44.97796998 -55.73752969 42.18832326 -59 39 C-60.28899029 37.68421158 -61.55904314 36.34968183 -62.8125 35 C-63.41707031 34.360625 -64.02164063 33.72125 -64.64453125 33.0625 C-66.34459978 30.47565221 -66.40469224 29.0425055 -66 26 C-64 23 -64 23 -60.9375 22.3125 C-55.07401549 23.33628301 -52.09367361 26.87571948 -48 31 C-47.16662109 31.77923828 -47.16662109 31.77923828 -46.31640625 32.57421875 C-45.16028654 33.66483593 -44.07083603 34.82553467 -43 36 C-43 36.66 -43 37.32 -43 38 C-42.01 38 -41.02 38 -40 38 C-40 37.34 -40 36.68 -40 36 C-38.03852126 34.61061923 -36.03833424 33.2739589 -34 32 C-34.43540858 30.66598223 -34.87347586 29.33283226 -35.3125 28 C-35.58320313 27.17757812 -35.85390625 26.35515625 -36.1328125 25.5078125 C-36.9110355 23.25727571 -37.78123012 21.07594113 -38.6875 18.875 C-40.09172862 15.16010946 -40.47881079 11.99008991 -40 8 C-36.1496895 5.43312633 -34.41430237 6.16711276 -30 7 C-30 7.66 -30 8.32 -30 9 C-29.34 9 -28.68 9 -28 9 C-25.67669016 14.60526694 -23.53254356 20.12524968 -22 26 C-18.37 26 -14.74 26 -11 26 C-11.03480469 24.37449219 -11.06960937 22.74898437 -11.10546875 21.07421875 C-11.13360394 18.94532281 -11.16090438 16.81641573 -11.1875 14.6875 C-11.21263672 13.61564453 -11.23777344 12.54378906 -11.26367188 11.43945312 C-11.27333984 10.41142578 -11.28300781 9.38339844 -11.29296875 8.32421875 C-11.3086792 7.37635498 -11.32438965 6.42849121 -11.34057617 5.4519043 C-11 3 -11 3 -9.60498047 1.19213867 C-6.55194065 -1.07558166 -3.67646703 -0.35013972 0 0 Z " fill="#9D9D9D" transform="translate(224,121)"/>
<path d="M0 0 C0.66 0.33 1.32 0.66 2 1 C1.31454928 5.78979585 -0.55242705 8.4495461 -3.4296875 12.23046875 C-8.96667178 21.99594599 -8.42509819 32.52838219 -8.38476562 43.40551758 C-8.38887593 45.26092868 -8.39433951 47.11633719 -8.40104675 48.97174072 C-8.41272771 52.95003651 -8.41527204 56.92819373 -8.41069031 60.90650368 C-8.40385978 67.19707398 -8.41978237 73.48746297 -8.43908691 79.77799988 C-8.48008341 94.2586222 -8.49149576 108.73923911 -8.50261688 123.21990967 C-8.51312396 136.50966445 -8.5298679 149.79933167 -8.57071257 163.08903235 C-8.5890767 169.34315179 -8.59295886 175.59706263 -8.58577728 181.85120261 C-8.58425722 185.73668701 -8.59502712 189.62206659 -8.60915565 193.50752258 C-8.61316308 195.30987847 -8.61202518 197.11225418 -8.60538292 198.91460228 C-8.59701576 201.37360777 -8.60697452 203.83188621 -8.62145996 206.29084778 C-8.61456603 207.0048516 -8.60767209 207.71885543 -8.60056925 208.45449573 C-8.6505109 212.80197613 -9.35568693 215.52988611 -12 219 C-14.12039622 220.36799756 -15.55106253 220.9591875 -18.0625 221.1875 C-20.45566247 221.9415387 -20.45566247 221.9415387 -21.75 225.5625 C-22.1625 226.696875 -22.575 227.83125 -23 229 C-23.33 227.68 -23.66 226.36 -24 225 C-25.98 225 -27.96 225 -30 225 C-29.67 224.01 -29.34 223.02 -29 222 C-28.34 221.67 -27.68 221.34 -27 221 C-26.566875 219.7934375 -26.566875 219.7934375 -26.125 218.5625 C-25 216 -25 216 -22.875 214.6875 C-22.25625 214.460625 -21.6375 214.23375 -21 214 C-21.33 213.34 -21.66 212.68 -22 212 C-22.99 211.67 -23.98 211.34 -25 211 C-24.67 210.67 -24.34 210.34 -24 210 C-23.89654305 207.52655623 -23.85840977 205.08070599 -23.86196899 202.60655212 C-23.85914771 201.82321662 -23.85632643 201.03988112 -23.85341966 200.23280817 C-23.84503482 197.58740593 -23.84373208 194.94204533 -23.84228516 192.29663086 C-23.83761963 190.40800864 -23.83247651 188.51938754 -23.82688904 186.63076782 C-23.81558509 182.55250592 -23.80716189 178.47425143 -23.80076981 174.39597893 C-23.7901111 167.94572586 -23.7698706 161.49552566 -23.74765015 155.04530334 C-23.68565871 136.69925363 -23.63174344 118.35320628 -23.59863281 100.00708008 C-23.58028078 89.88313527 -23.5513341 79.75927825 -23.5106281 69.63539797 C-23.48956142 64.27627239 -23.47410136 58.91725747 -23.47182083 53.5580883 C-23.46967148 48.51264104 -23.45377255 43.46742383 -23.42743111 38.42204666 C-23.42024661 36.5725907 -23.41813302 34.72310685 -23.42153358 32.87364006 C-23.4254425 30.34293388 -23.41092809 27.81295733 -23.39199829 25.28233337 C-23.39752799 24.5553652 -23.40305768 23.82839703 -23.40875494 23.07939953 C-23.34114285 17.82019311 -22.25611409 13.77548538 -20 9 C-16.8125 8 -16.8125 8 -14 8 C-13.67 6.68 -13.34 5.36 -13 4 C-13 4.66 -13 5.32 -13 6 C-12.01 6 -11.02 6 -10 6 C-9.71125 5.360625 -9.4225 4.72125 -9.125 4.0625 C-8 2 -8 2 -6 1 C-3.375 1.9375 -3.375 1.9375 -1 3 C-0.67 2.01 -0.34 1.02 0 0 Z " fill="#303030" transform="translate(265,143)"/>
<path d="M0 0 C4.5206339 -0.07406517 9.040916 -0.12856045 13.56201172 -0.16479492 C15.10048574 -0.17989711 16.63891661 -0.20038046 18.17724609 -0.22631836 C20.38650141 -0.26264074 22.59518848 -0.27971119 24.8046875 -0.29296875 C25.83914505 -0.31619453 25.83914505 -0.31619453 26.89450073 -0.33988953 C28.83544922 -0.34057617 28.83544922 -0.34057617 32 0 C34.30441554 3.45662331 34.25860135 4.94857881 34 9 C33.67 9.66 33.34 10.32 33 11 C32.34 10.67 31.68 10.34 31 10 C31.33 9.01 31.66 8.02 32 7 C31.34 7 30.68 7 30 7 C30.33 5.35 30.66 3.7 31 2 C20.77 1.67 10.54 1.34 0 1 C0 0.67 0 0.34 0 0 Z " fill="#B3B3B3" transform="translate(430,437)"/>
<path d="M0 0 C1.670625 0.061875 1.670625 0.061875 3.375 0.125 C3.705 0.785 4.035 1.445 4.375 2.125 C2.395 2.455 0.415 2.785 -1.625 3.125 C-1.41875 4.23875 -1.2125 5.3525 -1 6.5 C-0.87625 7.69625 -0.7525 8.8925 -0.625 10.125 C-1.285 10.785 -1.945 11.445 -2.625 12.125 C-2.955 11.135 -3.285 10.145 -3.625 9.125 C-4.285 9.125 -4.945 9.125 -5.625 9.125 C-5.75 5.75 -5.75 5.75 -5.625 2.125 C-3.625 0.125 -3.625 0.125 0 0 Z " fill="#A3A3A3" transform="translate(371.625,328.875)"/>
<path d="M0 0 C3.61855575 0.62388892 4.1709277 1.1709277 7 4 C1.72 4 -3.56 4 -9 4 C-9.33 3.34 -9.66 2.68 -10 2 C-6.42355152 0.7619986 -3.66305234 1.25073929 0 2 C0 1.34 0 0.68 0 0 Z " fill="#ADADAD" transform="translate(294,457)"/>
<path d="M0 0 C0.66 0.66 1.32 1.32 2 2 C1.34 2 0.68 2 0 2 C0.33 2.99 0.66 3.98 1 5 C0.375 7.625 0.375 7.625 -1 10 C-3.625 10.8125 -3.625 10.8125 -6 11 C-4.74194623 6.49197399 -3.09592835 3.5087188 0 0 Z " fill="#3F3F3F" transform="translate(252,141)"/>
<path d="M0 0 C0 0.99 0 1.98 0 3 C-0.66 3 -1.32 3 -2 3 C-2.4021875 3.8353125 -2.4021875 3.8353125 -2.8125 4.6875 C-4 7 -4 7 -5.5625 9.5625 C-7.11858764 12.00654778 -7.11858764 12.00654778 -8 15 C-8.33 12.69 -8.66 10.38 -9 8 C-8.01 7.67 -7.02 7.34 -6 7 C-5.67 6.01 -5.34 5.02 -5 4 C-4.34 4 -3.68 4 -3 4 C-2.67 3.01 -2.34 2.02 -2 1 C-1.34 0.67 -0.68 0.34 0 0 Z " fill="#B6B6B6" transform="translate(374,468)"/>
<path d="M0 0 C0.90105469 0.01804687 1.80210937 0.03609375 2.73046875 0.0546875 C3.41753906 0.07789063 4.10460937 0.10109375 4.8125 0.125 C4.4825 1.775 4.1525 3.425 3.8125 5.125 C1.1725 4.795 -1.4675 4.465 -4.1875 4.125 C-4.1875 3.795 -4.1875 3.465 -4.1875 3.125 C-2.5375 3.125 -0.8875 3.125 0.8125 3.125 C0.8125 2.465 0.8125 1.805 0.8125 1.125 C-3.6425 1.62 -3.6425 1.62 -8.1875 2.125 C-4.87379 -0.08414 -3.8428979 -0.09981553 0 0 Z " fill="#A5A5A5" transform="translate(293.1875,305.875)"/>
<path d="M0 0 C0.33 0 0.66 0 1 0 C1 1.65 1 3.3 1 5 C0.34 5 -0.32 5 -1 5 C-0.67 6.65 -0.34 8.3 0 10 C-4 10 -4 10 -6 9 C-5.02501855 7.4972763 -4.04490611 5.99788037 -3.0625 4.5 C-2.51722656 3.6646875 -1.97195313 2.829375 -1.41015625 1.96875 C-0.94480469 1.3190625 -0.47945313 0.669375 0 0 Z " fill="#494949" transform="translate(350,442)"/>
<path d="M0 0 C2.125 0.375 2.125 0.375 4 1 C3.67 1.33 3.34 1.66 3 2 C4.32 2.66 5.64 3.32 7 4 C4.03 4.66 1.06 5.32 -2 6 C-2 2 -2 2 0 0 Z " fill="#3C3C3C" transform="translate(294,266)"/>
<path d="M0 0 C0.99 0.33 1.98 0.66 3 1 C3.6875 3.0625 3.6875 3.0625 4 5 C3.01 5.33 2.02 5.66 1 6 C-2.1875 4.0625 -2.1875 4.0625 -5 2 C-4.01 1.67 -3.02 1.34 -2 1 C-1.34 0.67 -0.68 0.34 0 0 Z " fill="#424242" transform="translate(251,474)"/>
<path d="M0 0 C0 3.61656862 -1.02130767 5.0319615 -3 8 C-5 10 -5 10 -7.625 10.125 C-8.40875 10.08375 -9.1925 10.0425 -10 10 C-6.66666667 6.66666667 -3.33333333 3.33333333 0 0 Z " fill="#444444" transform="translate(342,454)"/>
<path d="M0 0 C1.69752187 0.25245197 3.38471545 0.57645775 5.0625 0.9375 C5.98160156 1.13214844 6.90070313 1.32679688 7.84765625 1.52734375 C8.91306641 1.76130859 8.91306641 1.76130859 10 2 C8 4 8 4 4.375 4.125 C3.26125 4.08375 2.1475 4.0425 1 4 C1 3.34 1 2.68 1 2 C0.34 1.67 -0.32 1.34 -1 1 C-0.67 0.67 -0.34 0.34 0 0 Z " fill="#3A3A3A" transform="translate(274,473)"/>
<path d="M0 0 C2 2 2 2 2.125 4.625 C2.08375 5.40875 2.0425 6.1925 2 7 C1.34 7 0.68 7 0 7 C-1.6446674 9.46326712 -1.6446674 9.46326712 -3 12 C-4 10 -4 10 -3.22265625 7.6171875 C-2.83980469 6.71226562 -2.45695312 5.80734375 -2.0625 4.875 C-1.68222656 3.96492188 -1.30195313 3.05484375 -0.91015625 2.1171875 C-0.60980469 1.41851562 -0.30945313 0.71984375 0 0 Z " fill="#464646" transform="translate(355,430)"/>
<path d="M0 0 C1.32 0 2.64 0 4 0 C4 1.65 4 3.3 4 5 C3.401875 4.835 2.80375 4.67 2.1875 4.5 C-0.11344336 3.8885876 -0.11344336 3.8885876 -3 4 C-1.75 2 -1.75 2 0 0 Z " fill="#3E3E3E" transform="translate(234,358)"/>
<path d="M0 0 C0.66 0 1.32 0 2 0 C2.125 5.75 2.125 5.75 1 8 C0.34 7.67 -0.32 7.34 -1 7 C-0.67 6.01 -0.34 5.02 0 4 C-0.66 4 -1.32 4 -2 4 C-1 1 -1 1 0 0 Z " fill="#ABABAB" transform="translate(462,440)"/>
<path d="M0 0 C5.53846154 -0.36923077 5.53846154 -0.36923077 7.875 1.5 C8.24625 1.995 8.6175 2.49 9 3 C8.67 3.99 8.34 4.98 8 6 C7.01 5.67 6.02 5.34 5 5 C5 3.68 5 2.36 5 1 C3.35 1 1.7 1 0 1 C0 0.67 0 0.34 0 0 Z " fill="#ACACAC" transform="translate(389,322)"/>
<path d="M0 0 C0.66 0.99 1.32 1.98 2 3 C2.99 3.66 3.98 4.32 5 5 C5 5.99 5 6.98 5 8 C2.4636387 6.98545548 1.20648539 6.3146444 -0.3125 4 C-0.539375 3.34 -0.76625 2.68 -1 2 C-0.67 1.34 -0.34 0.68 0 0 Z " fill="#EFEFEF" transform="translate(353,354)"/>
<path d="M0 0 C1.15941038 3.47823115 0.70820884 5.45895578 0 9 C-0.33 8.34 -0.66 7.68 -1 7 C-1.66 7 -2.32 7 -3 7 C-1.125 1.125 -1.125 1.125 0 0 Z " fill="#A2A2A2" transform="translate(253,384)"/>
<path d="M0 0 C0.66 0.66 1.32 1.32 2 2 C-2.39453125 6.00390625 -2.39453125 6.00390625 -4 7 C-4.99 6.67 -5.98 6.34 -7 6 C-4.69 4.02 -2.38 2.04 0 0 Z " fill="#ADADAD" transform="translate(263,373)"/>
<path d="M0 0 C0.66 1.32 1.32 2.64 2 4 C0.02 4.99 0.02 4.99 -2 6 C-2.33 4.68 -2.66 3.36 -3 2 C-2.01 1.34 -1.02 0.68 0 0 Z " fill="#2D2D2D" transform="translate(234,361)"/>
<path d="M0 0 C1.98 0.66 3.96 1.32 6 2 C5.34 3.32 4.68 4.64 4 6 C2 4.6875 2 4.6875 0 3 C0 2.01 0 1.02 0 0 Z " fill="#434343" transform="translate(317,142)"/>
</svg>
